<svg width="44" height="21" viewBox="0 0 44 21" fill="none" xmlns="http://www.w3.org/2000/svg">
<path d="M37.6384 20.8938V20.0524H37.6598C37.7938 20.0904 37.9326 20.1084 38.0718 20.106C38.457 20.106 38.6389 19.972 38.7727 19.5862L38.9706 19.0503L37.205 14.4631H38.2965L39.1633 16.9175C39.3077 17.3301 39.4682 17.8982 39.4682 17.8982H39.4896C39.4896 17.8982 39.6394 17.3301 39.7893 16.9175L40.6186 14.4631H41.6779L39.7893 19.6398C39.4361 20.6473 39.083 20.9527 38.2751 20.9527H38.1574C37.9829 20.9545 37.8088 20.9365 37.6384 20.8991V20.8938ZM2.68439 20.8938V14.4631H3.67421V15.0794H3.70096C4.02198 14.6507 4.47142 14.3399 5.13486 14.3399C6.35475 14.3399 7.16265 15.3206 7.16265 16.8264C7.16265 18.3429 6.3601 19.3022 5.12951 19.3022C4.85964 19.316 4.59064 19.2614 4.34746 19.1434C4.10428 19.0253 3.89479 18.8477 3.73841 18.627H3.71166V20.8991L2.68439 20.8938ZM3.66351 16.8478C3.66351 17.7696 4.06479 18.434 4.9476 18.434C5.6806 18.434 6.10328 17.8178 6.10328 16.8478C6.10328 15.9047 5.73945 15.1973 4.9155 15.1973C4.04338 15.1973 3.66351 15.9368 3.66351 16.8478ZM32.6626 16.8157C32.6626 15.4224 33.5507 14.3399 34.9632 14.3399C36.1349 14.3399 36.8733 15.0151 37.0338 16.0172H36.0065C35.9722 15.7739 35.8483 15.5523 35.6593 15.3956C35.4703 15.239 35.2297 15.1587 34.9846 15.1705C34.1286 15.1705 33.6845 15.8457 33.6845 16.805C33.6845 17.7481 34.1179 18.434 34.9686 18.434C35.5892 18.434 35.9744 18.1018 36.0386 17.4963H37.0445C36.9643 18.5466 36.2045 19.2861 34.9846 19.2861H34.9632C33.5614 19.2861 32.6626 18.1983 32.6626 16.8157ZM27.8686 17.8874C27.8686 16.8157 28.7086 16.5317 29.7948 16.3709C30.501 16.253 30.8969 16.1994 30.8969 15.7814C30.8969 15.3795 30.5759 15.1276 30.0088 15.1276C29.3828 15.1276 29.0778 15.3795 29.051 15.9261H28.0719C28.0987 15.0687 28.6872 14.3613 29.9981 14.3613C31.2608 14.3613 31.9081 14.8865 31.9081 15.9797V18.0321C31.9081 18.3751 31.9777 18.5144 32.3094 18.4608H32.3308V19.12C32.2238 19.1736 32.0901 19.2218 31.8493 19.2218C31.2929 19.2325 30.9879 19.0396 30.8969 18.5573C30.7355 18.7906 30.5168 18.9782 30.2619 19.1021C30.007 19.226 29.7245 19.282 29.4416 19.2647C28.5321 19.2647 27.8686 18.7985 27.8686 17.8874ZM29.9874 17.03C29.3132 17.1801 28.9173 17.3033 28.9173 17.8499C28.9173 18.3644 29.2597 18.5144 29.7038 18.5144C30.5063 18.5251 30.9076 17.9678 30.9076 17.4748V16.7353C30.6179 16.8806 30.3075 16.98 29.9874 17.03ZM12.5344 17.8874C12.5344 16.8157 13.3744 16.5317 14.4606 16.3709C15.1615 16.253 15.5627 16.1994 15.5627 15.7814C15.5627 15.3795 15.2417 15.1276 14.6746 15.1276C14.0486 15.1276 13.7383 15.3795 13.7169 15.9261H12.7377C12.7591 15.0687 13.353 14.3613 14.6639 14.3613C15.9266 14.3613 16.574 14.8865 16.574 15.9797V18.0321C16.574 18.3751 16.6435 18.5144 16.9752 18.4608H16.9966V19.12C16.8896 19.1736 16.7559 19.2218 16.5151 19.2218C15.948 19.2325 15.6537 19.0396 15.5627 18.5573C15.4009 18.7914 15.1813 18.9796 14.9254 19.1035C14.6694 19.2275 14.3858 19.283 14.1021 19.2647C13.1925 19.2647 12.5344 18.7985 12.5344 17.8874ZM14.6532 17.03C13.979 17.1801 13.5831 17.3033 13.5831 17.8499C13.5831 18.3644 13.9255 18.5144 14.3643 18.5144C15.1775 18.5251 15.5734 17.9678 15.5734 17.4748V16.7353C15.2837 16.8805 14.9733 16.9799 14.6532 17.03ZM26.1939 19.1736V16.0976C26.1939 15.5349 25.8729 15.2402 25.4235 15.2402C24.8617 15.2402 24.4444 15.6957 24.4444 16.3602V19.1629H23.4171V16.0869C23.4171 15.5242 23.1228 15.2295 22.668 15.2295C22.133 15.2295 21.6782 15.685 21.6782 16.3441V19.1521H20.651V14.4631H21.6408V15.1169H21.6622C21.8036 14.8803 22.0045 14.685 22.2448 14.5505C22.4852 14.4161 22.7566 14.3471 23.0319 14.3506C23.3016 14.3448 23.5667 14.421 23.7921 14.5693C24.0176 14.7177 24.1928 14.931 24.2946 15.1812H24.316C24.4583 14.9288 24.6652 14.7188 24.9152 14.5729C25.1653 14.4269 25.4497 14.3502 25.7392 14.3506C26.6648 14.3506 27.2319 14.9562 27.2319 15.9583V19.1736H26.1939ZM10.8598 19.1789V16.1458C10.8598 15.5992 10.5173 15.2563 9.9502 15.2563C9.32421 15.2563 8.85872 15.7386 8.85872 16.4191V19.1789H7.83145V12.6411H8.85872V15.0901H8.88013C9.22255 14.6132 9.62918 14.3506 10.2926 14.3506C11.2717 14.3506 11.887 15.0151 11.887 16.0119V19.1736L10.8598 19.1789ZM17.5905 19.1682V14.4631H18.5911V15.2402H18.6018C18.8853 14.7364 19.2599 14.4364 19.8537 14.4364C19.9526 14.4306 20.0518 14.4397 20.148 14.4631V15.4009H20.1266C20.0444 15.3807 19.9596 15.3735 19.8752 15.3795C19.1689 15.3795 18.6125 15.8564 18.6125 16.7567V19.1682H17.5905ZM41.908 13.7129C41.9044 13.5732 41.9289 13.4343 41.9802 13.3043C42.0314 13.1744 42.1082 13.0561 42.2061 12.9565C42.304 12.857 42.4209 12.7782 42.5499 12.725C42.6788 12.6717 42.8172 12.645 42.9567 12.6465C43.5131 12.6465 44 13.0698 44 13.7183C44 14.3667 43.5131 14.7847 42.9567 14.7847C42.3414 14.7847 41.908 14.3292 41.908 13.7129ZM42.1381 13.7129C42.1381 14.2059 42.4591 14.5918 42.9567 14.5918C43.4061 14.5918 43.7699 14.2274 43.7699 13.7129C43.7699 13.1985 43.4061 12.8394 42.9513 12.8394C42.4912 12.8394 42.1381 13.2038 42.1381 13.7129ZM43.2402 14.3399L42.9299 13.8415H42.748V14.3292H42.5554V13.1609H42.9995C43.2831 13.1609 43.4275 13.2628 43.4275 13.4986C43.4275 13.7129 43.3045 13.804 43.1225 13.8201L43.4543 14.3399H43.2402ZM42.7373 13.67H42.9674C43.1118 13.67 43.2349 13.6593 43.2349 13.4878C43.2349 13.3378 43.1011 13.3271 42.9781 13.3271H42.7373V13.67ZM33.4437 7.4377H36.6646C36.8358 8.21473 37.2746 8.48267 38.1788 8.48267C38.9813 8.48267 39.4201 8.19866 39.4201 7.74315C39.4201 7.08937 38.8315 7.0465 37.6009 6.72497C36.167 6.34985 35.2468 6.02832 34.8188 5.72823C34.4361 5.46527 34.127 5.10856 33.9209 4.69206C33.7149 4.27556 33.6187 3.81316 33.6417 3.3489C33.6417 1.35005 35.2147 0.0478516 37.9541 0.0478516C40.6132 0.0478516 42.1702 1.21608 42.3521 3.30603H39.2221C39.1151 2.6844 38.6924 2.39503 37.8899 2.39503C37.1943 2.39503 36.8465 2.62546 36.8465 3.09167C36.8465 3.63828 37.3816 3.74545 38.3768 4.00268C39.6608 4.33493 40.6774 4.53321 41.3248 4.98335C41.7424 5.22748 42.0855 5.58102 42.3174 6.00592C42.5494 6.43082 42.6612 6.91101 42.641 7.39483C42.641 9.63483 41.0359 10.9531 38.0397 10.9531C35.2735 10.9531 33.6524 9.6509 33.4437 7.4377ZM14.284 5.50316C14.284 2.12708 16.3118 0.0478516 19.5167 0.0478516C22.5129 0.0478516 24.2678 1.5644 24.4604 4.24383H21.3144C21.2234 3.19885 20.6349 2.63617 19.5595 2.63617C18.2593 2.63617 17.628 3.59005 17.628 5.50316C17.628 7.37875 18.3235 8.3487 19.6665 8.3487C20.667 8.3487 21.2983 7.74315 21.4054 6.63387H24.5086V6.64995C24.3267 9.36152 22.5396 10.9531 19.5755 10.9531C16.2797 10.9531 14.2787 8.86315 14.2787 5.50316H14.284ZM0.442582 4.84938C0.158957 4.56069 0 4.17191 0 3.76689C0 3.36187 0.158957 2.97309 0.442582 2.6844L2.60948 0.519429C2.74779 0.374929 2.91394 0.260052 3.09788 0.181756C3.28181 0.10346 3.4797 0.0633741 3.67956 0.0639274C3.88252 0.0638389 4.08348 0.10405 4.27083 0.182235C4.45817 0.260419 4.62819 0.375026 4.77104 0.519429L6.55271 2.30393L8.32369 0.519429C8.46464 0.375547 8.63282 0.261255 8.81839 0.183232C9.00396 0.10521 9.2032 0.0650232 9.40446 0.0650232C9.60572 0.0650232 9.80496 0.10521 9.99053 0.183232C10.1761 0.261255 10.3443 0.375547 10.4852 0.519429L12.6521 2.66833C12.9358 2.95701 13.0947 3.3458 13.0947 3.75081C13.0947 4.15583 12.9358 4.54461 12.6521 4.8333L6.55271 10.9531L0.442582 4.84938ZM27.2587 10.6798L23.797 0.353306H27.1677L28.9066 7.01435L30.7685 0.353306H34.0215L30.5492 10.6798H27.2587Z" fill="#CC0000"/>
</svg>
