<svg width="40" height="29" viewBox="0 0 40 29" fill="none" xmlns="http://www.w3.org/2000/svg">
<path d="M37.2502 1.49219C35.5871 1.49219 33.9829 2.4944 32.9432 4.01134C37.8539 7.22835 31.8368 23.2936 22.9617 23.2936C21.8997 23.2936 20.9905 22.9842 20.3918 22.3483C25.1965 18.0028 28.6658 12.0934 28.6658 8.6067C28.6658 6.82498 27.8009 5.69408 25.7681 5.69408C19.8743 5.69408 13.6602 15.407 14.8134 22.4126C11.0977 23.739 9.25219 22.081 9.25219 18.7502C9.25219 11.794 16.4888 4.5805 16.0675 2.41769C8.57214 4.7463 2.70297 -0.663204 0 8.139C3.6442 6.15931 7.00752 9.33176 11.1642 7.00563C7.59147 11.1432 3.98916 16.9907 4.03598 21.9374C4.06801 25.1743 5.81003 27.5103 9.58236 27.5103C11.7236 27.5103 13.946 26.7679 16.0847 25.5306C17.0014 26.6813 18.4797 27.5103 20.7367 27.5103C29.9397 27.5103 40 14.521 40 5.2536C40 2.79383 39.0144 1.50209 37.2502 1.49219ZM19.5393 19.3515C19.6205 14.3453 23.1391 9.08183 24.9255 9.08183C25.4553 9.08183 25.5661 9.4258 25.5661 9.79204C25.5661 11.5045 23.0332 16.085 19.5393 19.3515Z" fill="#E62600"/>
</svg>
