<svg width="48" height="48" viewBox="0 0 48 48" fill="none" xmlns="http://www.w3.org/2000/svg">
<mask id="mask0_5193_1875" style="mask-type:luminance" maskUnits="userSpaceOnUse" x="0" y="0" width="48" height="48">
<path d="M48 0H0V48H48V0Z" fill="white"/>
</mask>
<g mask="url(#mask0_5193_1875)">
<path d="M32.668 14.7188C34.9979 14.7188 36.8867 12.83 36.8867 10.5C36.8867 8.17005 34.9979 6.28125 32.668 6.28125C30.338 6.28125 28.4492 8.17005 28.4492 10.5C28.4492 12.83 30.338 14.7188 32.668 14.7188Z" fill="white"/>
<path d="M4.73029 21.3758C4.53848 21.2735 4.36841 21.3507 4.16779 21.3758C3.34785 21.479 2.84573 22.586 3.04279 24.0008C3.23029 25.349 3.94991 26.4333 4.73029 26.4383C4.99991 29.2381 5.8911 31.178 7.16779 32.6258C7.25066 32.7196 7.46273 32.9086 7.54279 33.0008" stroke="black" stroke-width="0.8" stroke-linecap="round" stroke-linejoin="round"/>
<path d="M17.1055 32.8133C18.5046 30.944 19.4077 28.7508 19.7305 26.4383M19.7305 26.4383C19.744 26.4406 19.717 26.4366 19.7305 26.4383ZM19.7305 26.4383C20.5506 26.5414 21.4084 25.4157 21.6055 24.0008C21.8025 22.5859 21.3006 21.4789 20.4805 21.3758C20.2581 21.3479 19.941 21.2485 19.7305 21.3758" stroke="black" stroke-width="0.8" stroke-linecap="round" stroke-linejoin="round"/>
<path d="M14.668 9.93848C19.6605 10.951 19.3555 13.3135 19.3555 13.3135C19.3555 13.3135 21.349 14.0127 21.2305 16.501C21.112 18.9893 21.328 20.2034 20.293 21.376C19.7781 21.5635 19.7305 21.751 19.7305 21.751C19.7305 21.751 18.2005 19.2458 18.793 16.876C18.793 16.876 18.043 18.001 15.6055 18.1885C15.6055 18.1885 16.7995 17.281 16.918 16.6885C16.918 16.6885 11.8555 20.0635 7.16797 19.3135C7.16797 19.3135 8.10547 18.5635 8.10547 17.626C8.10547 17.626 6.23047 18.001 4.91797 21.5635L4.16797 21.376C4.16797 21.376 3.41797 18.9385 4.16797 17.251C3.79297 17.251 3.41797 17.8135 3.41797 17.8135C3.41797 17.8135 3.60547 14.626 5.48047 12.751C6.43946 11.6466 7.66621 10.8073 9.04297 10.3135" stroke="black" stroke-width="0.8" stroke-linecap="round" stroke-linejoin="round"/>
<path d="M6.04297 13.3135C6.84669 12.508 7.80278 11.8706 8.85547 11.4385" stroke="black" stroke-width="0.8" stroke-linecap="round" stroke-linejoin="round"/>
<path d="M4.73047 15.751C4.88984 15.2635 4.98941 14.7407 5.29297 14.251" stroke="black" stroke-width="0.8" stroke-linecap="round" stroke-linejoin="round"/>
<path d="M10.3555 9.93848C11.4006 9.70235 12.4774 9.63901 13.543 9.75098" stroke="black" stroke-width="0.8" stroke-linecap="round" stroke-linejoin="round"/>
<path d="M19.1681 17.8135C19.1119 18.3906 19.3307 18.6222 19.5431 19.126" stroke="black" stroke-width="0.8" stroke-linecap="round" stroke-linejoin="round"/>
<path d="M17.3867 26.5321L14.0117 25.0321C13.4488 24.7912 12.8428 24.667 12.2305 24.667C11.6181 24.667 11.0122 24.7912 10.4492 25.0321L7.26172 26.5321V31.5946C7.26172 33.9657 9.31128 35.9071 11.7617 35.9071H12.8867C15.3372 35.9071 17.3867 33.9657 17.3867 31.5946V26.5321Z" fill="#6FA7D9"/>
<path d="M17.293 26.0633L14.1055 24.7508C13.5425 24.5099 12.9365 24.3857 12.3242 24.3857C11.7119 24.3857 11.1059 24.5099 10.543 24.7508L7.16797 26.0633V31.3133C7.16797 33.6844 9.21753 35.6258 11.668 35.6258H12.9805C13.5482 35.6308 14.1112 35.5227 14.6367 35.3077C15.1622 35.0928 15.6396 34.7753 16.041 34.3739C16.4425 33.9724 16.7599 33.495 16.9749 32.9695C17.1898 32.4441 17.298 31.881 17.293 31.3133V26.0633Z" stroke="black" stroke-width="0.8" stroke-linecap="round" stroke-linejoin="round"/>
<path d="M17.293 26.25L19.7305 21.75" stroke="black" stroke-width="0.8" stroke-linecap="round" stroke-linejoin="round"/>
<path d="M17.293 30.1875L19.7305 26.4375" stroke="black" stroke-width="0.8" stroke-linecap="round" stroke-linejoin="round"/>
<path d="M7.16797 30.1875L4.73047 26.625" stroke="black" stroke-width="0.8" stroke-linecap="round" stroke-linejoin="round"/>
<path d="M7.35547 26.25L4.73047 21.375" stroke="black" stroke-width="0.8" stroke-linecap="round" stroke-linejoin="round"/>
<path d="M9.60547 28.876H14.668" stroke="white" stroke-width="0.8" stroke-linecap="round" stroke-linejoin="round"/>
<path d="M10.918 30.375H13.543" stroke="white" stroke-width="0.8" stroke-linecap="round" stroke-linejoin="round"/>
<path d="M9.60547 31.876H14.668" stroke="white" stroke-width="0.8" stroke-linecap="round" stroke-linejoin="round"/>
<path d="M4.54264 23.626C4.54264 23.626 4.16764 24.001 4.54264 24.5635" stroke="black" stroke-width="0.8" stroke-linecap="round" stroke-linejoin="round"/>
<path d="M20.293 23.626C20.293 23.626 20.668 24.001 20.293 24.5635" stroke="black" stroke-width="0.8" stroke-linecap="round" stroke-linejoin="round"/>
<path d="M40.7295 29.8135C40.3719 34.3234 38.1898 37.6667 38.667 40.6885C38.667 40.6885 37.0417 39.5558 36.792 38.251" stroke="black" stroke-width="0.8" stroke-linecap="round" stroke-linejoin="round"/>
<path d="M40.3545 25.3135C40.6292 26.2752 40.9061 27.3368 40.917 28.501" stroke="black" stroke-width="0.8" stroke-linecap="round" stroke-linejoin="round"/>
<path d="M27.6048 38.2511C27.4873 39.7425 26.1048 40.3136 26.1048 40.3136C26.1048 40.3136 26.6507 39.6373 24.7923 36.0011C23.1722 32.8309 22.7913 28.7115 24.7923 24.3761C26.7933 20.0408 32.145 17.6462 35.4798 19.3136C37.4731 20.3138 39.0619 21.9688 39.9798 24.0011" stroke="black" stroke-width="0.8" stroke-linecap="round" stroke-linejoin="round"/>
<path d="M37.917 31.126C38.1294 28.252 37.1936 25.5889 33.6045 24.5635C32.1341 25.7465 30.4897 26.6952 28.7295 27.376C27.1609 27.9572 26.5455 29.3123 26.4795 30.9385" stroke="black" stroke-width="0.8" stroke-linecap="round" stroke-linejoin="round"/>
<path d="M26.1047 30.751C25.4786 30.8297 25.2047 31.9208 25.3547 33.001C25.4981 34.0304 26.0715 34.6847 26.6672 34.6885C26.8734 36.826 27.5672 38.4582 28.5422 39.5635C28.6055 39.6353 29.0435 40.0555 29.1047 40.126" stroke="black" stroke-width="0.8" stroke-linecap="round" stroke-linejoin="round"/>
<path d="M35.667 39.9385C36.5587 38.7891 37.8441 36.6276 38.1045 34.6885M38.1045 34.6885C38.094 34.6872 38.1148 34.6902 38.1045 34.6885ZM38.1045 34.6885C38.7306 34.7672 39.267 34.0814 39.417 33.001C39.567 31.9206 39.2931 30.8297 38.667 30.751C38.4652 30.7573 38.2697 30.8224 38.1045 30.9385" stroke="black" stroke-linecap="round" stroke-linejoin="round"/>
<path d="M33.6045 24.5635C33.6045 24.5635 34.7295 23.6809 34.7295 22.3135L33.6045 24.5635Z" fill="white"/>
<path d="M33.6045 24.5635C33.6045 24.5635 34.7295 23.6809 34.7295 22.3135" stroke="black" stroke-width="0.8" stroke-linecap="round" stroke-linejoin="round"/>
<path d="M38.4795 32.251C38.4795 32.251 38.8545 32.626 38.4795 33.1885" stroke="black" stroke-width="0.8" stroke-linecap="round" stroke-linejoin="round"/>
<path d="M26.6676 32.251C26.6676 32.251 26.2926 32.626 26.6676 33.1885" stroke="black" stroke-width="0.8" stroke-linecap="round" stroke-linejoin="round"/>
<path d="M26.1045 24.1885C26.7727 23.0774 27.667 22.1191 28.7295 21.376" stroke="black" stroke-width="0.8" stroke-linecap="round" stroke-linejoin="round"/>
<path d="M24.9795 26.8135C25.1409 26.256 25.482 25.6928 25.7295 25.126" stroke="black" stroke-width="0.8" stroke-linecap="round" stroke-linejoin="round"/>
<path d="M36.1983 34.9696L33.7608 33.8446C33.3791 33.6665 32.9631 33.5742 32.542 33.5742C32.1209 33.5742 31.7049 33.6665 31.3233 33.8446L29.0733 34.9696V38.9071C29.0721 39.326 29.1537 39.7411 29.3135 40.1283C29.4732 40.5156 29.708 40.8675 30.0042 41.1637C30.3004 41.4599 30.6523 41.6946 31.0396 41.8544C31.4268 42.0142 31.8418 42.0958 32.2608 42.0946H33.0108C33.4297 42.0958 33.8447 42.0142 34.232 41.8544C34.6192 41.6946 34.9711 41.4599 35.2673 41.1637C35.5635 40.8675 35.7983 40.5156 35.958 40.1283C36.1178 39.7411 36.1994 39.326 36.1983 38.9071V34.9696Z" fill="#FF5252"/>
<path d="M35.8545 34.5009L33.6045 33.3759C33.2229 33.1978 32.8069 33.1055 32.3857 33.1055C31.9646 33.1055 31.5486 33.1978 31.167 33.3759L28.7295 34.5009V38.4384C28.7295 40.2487 30.192 41.8134 31.917 41.8134H32.8545C34.5795 41.8134 35.8545 40.2487 35.8545 38.4384V34.5009Z" stroke="black" stroke-width="0.8" stroke-linecap="round" stroke-linejoin="round"/>
<path d="M35.8545 34.5L37.917 31.125" stroke="black" stroke-width="0.8" stroke-linecap="round" stroke-linejoin="round"/>
<path d="M35.8545 37.5L38.1045 34.6875" stroke="black" stroke-width="0.8" stroke-linecap="round" stroke-linejoin="round"/>
<path d="M28.7295 37.5L26.667 34.875" stroke="black" stroke-linecap="round" stroke-linejoin="round"/>
<path d="M28.7295 34.5L26.4795 30.9375" stroke="black" stroke-width="0.8" stroke-linecap="round" stroke-linejoin="round"/>
<path d="M30.417 36.5635H34.167" stroke="white" stroke-width="0.8" stroke-linecap="round" stroke-linejoin="round"/>
<path d="M31.3545 37.6875H33.2295" stroke="white" stroke-width="0.8" stroke-linecap="round" stroke-linejoin="round"/>
<path d="M30.417 39.001H34.167" stroke="white" stroke-width="0.8" stroke-linecap="round" stroke-linejoin="round"/>
<path d="M32.5742 9.65723C32.692 10.4884 33.0645 12.7225 33.8867 13.9697C34.8388 15.4125 36.2955 16.1549 36.8867 16.4072C37.4305 16.0725 38.968 14.9804 39.6992 13.4072C40.3273 12.0539 40.2673 9.93416 40.2617 9.09473C39.1153 8.71279 38.7737 7.94216 38.5742 7.40723L36.3242 7.59473L34.0742 7.78223C33.9552 8.3406 33.6516 9.11048 32.5742 9.65723Z" fill="#75ADDB"/>
<path d="M32.4805 9.93848C32.5982 10.7697 32.9708 13.0039 33.793 14.251C34.7451 15.6947 36.3893 16.4361 36.9805 16.6885C37.5242 16.3538 38.8742 15.4489 39.6055 13.876C40.2336 12.5226 40.3611 10.2154 40.3555 9.37598C39.2093 8.99404 38.68 8.22323 38.4805 7.68848L36.2305 7.87598L34.168 8.06348C34.0489 8.62185 33.5578 9.39173 32.4805 9.93848Z" stroke="black" stroke-width="0.8" stroke-miterlimit="10" stroke-linecap="round"/>
<path d="M35.293 12.001L36.043 12.751L37.7305 10.6885" stroke="white" stroke-width="0.8" stroke-miterlimit="10" stroke-linecap="round"/>
<path d="M8.86621 43.6777H5.86621C5.51843 43.6767 5.1852 43.5381 4.93928 43.2922C4.69336 43.0462 4.55475 42.713 4.55371 42.3652V39.3652C4.55371 39.0171 4.69199 38.6833 4.93814 38.4372C5.18428 38.191 5.51811 38.0527 5.86621 38.0527H9.05371C9.35208 38.0527 9.63823 38.1713 9.84921 38.3822C10.0602 38.5932 10.1787 38.8794 10.1787 39.1777V42.3652C10.1777 42.713 10.0391 43.0462 9.79314 43.2922C9.54723 43.5381 9.21399 43.6767 8.86621 43.6777Z" fill="#FF5252"/>
<path d="M8.85547 38.25H5.48047C4.85915 38.25 4.35547 38.7537 4.35547 39.375V42.75C4.35547 43.3713 4.85915 43.875 5.48047 43.875H8.85547C9.47679 43.875 9.98047 43.3713 9.98047 42.75V39.375C9.98047 38.7537 9.47679 38.25 8.85547 38.25Z" stroke="black" stroke-width="0.8" stroke-linecap="round" stroke-linejoin="round"/>
<path d="M7.16797 39.75V42.375" stroke="white" stroke-width="0.8" stroke-linecap="round" stroke-linejoin="round"/>
<path d="M8.48047 41.0625H5.85547" stroke="white" stroke-width="0.8" stroke-linecap="round" stroke-linejoin="round"/>
</g>
</svg>
