<svg width="250" height="53" viewBox="0 0 250 53" fill="none" xmlns="http://www.w3.org/2000/svg">
<g clip-path="url(#clip0_5193_1167)">
<path d="M35.945 46L35.8929 20.1385L23.0256 41.534H19.7958L6.92853 20.502V46H0V7H5.99083L21.5149 32.8615L36.7785 7H42.7693L42.8214 46H35.945Z" fill="#095F93"/>
<path d="M82.7255 39.9241V46H53.3965V7H81.9441V13.0759H60.6376V23.2024H79.5478V29.1744H60.6376V39.9241H82.7255Z" fill="#095F93"/>
<path d="M90.8008 7H107.888C120.547 7 129.246 14.7896 129.246 26.474C129.246 38.1585 120.599 45.9481 107.888 45.9481H90.8008V7ZM107.575 39.8722C116.275 39.8722 121.953 34.5752 121.953 26.526C121.953 18.4248 116.327 13.1798 107.575 13.1798H98.094V39.9241H107.575V39.8722Z" fill="#095F93"/>
<path d="M167.171 25.7991C167.171 26.8896 167.066 28.136 166.754 29.4343L163.42 46.0521H154.72L157.95 30.0055C158.106 29.2785 158.158 28.5514 158.158 27.9283C158.158 24.8643 156.491 23.1506 153.001 23.1506C148.573 23.1506 145.499 25.5914 144.458 30.8364L141.436 46.0521H132.736L138.727 16.0881H147.01L146.333 19.3078C149.094 16.8151 152.532 15.6207 156.231 15.6207C162.847 15.5687 167.171 19.152 167.171 25.7991Z" fill="#488FC5"/>
<path d="M199.885 46L192.331 35.1465H191.862H183.996V46H174.932V7H191.862C202.333 7 208.897 12.4008 208.897 21.1252C208.897 26.9933 205.928 31.2517 200.875 33.4328L209.626 45.9481H199.885V46ZM191.393 14.3742H183.996V27.98H191.393C196.915 27.98 199.728 25.4354 199.728 21.1771C199.728 16.8668 196.915 14.3742 191.393 14.3742Z" fill="#C12131"/>
<path d="M239.581 46L230.1 32.4461L220.827 46H210.408L224.89 26.1625L211.19 7H221.452L230.464 19.6711L239.268 7H249.062L235.413 25.8509L250 46H239.581Z" fill="#C12131"/>
</g>
<defs>
<clipPath id="clip0_5193_1167">
<rect width="250" height="39" fill="white" transform="translate(0 7)"/>
</clipPath>
</defs>
</svg>
