<svg width="90" height="90" viewBox="0 0 90 90" fill="none" xmlns="http://www.w3.org/2000/svg">
<path d="M38.6855 41.25V36.315C38.6855 32.8275 41.513 30 45.0005 30C48.488 30 51.3155 32.8275 51.3155 36.315V41.25" stroke="#2D5DA6" stroke-width="2" stroke-linecap="round" stroke-linejoin="round"/>
<path fill-rule="evenodd" clip-rule="evenodd" d="M52.5 60H37.5C35.43 60 33.75 58.32 33.75 56.25V45C33.75 42.93 35.43 41.25 37.5 41.25H52.5C54.57 41.25 56.25 42.93 56.25 45V56.25C56.25 58.32 54.57 60 52.5 60Z" stroke="#2D5DA6" stroke-width="2" stroke-linecap="round" stroke-linejoin="round"/>
<path d="M28.125 11.25H19.6875C15.0262 11.25 11.25 15.0262 11.25 19.6875V28.125" stroke="#2D5DA6" stroke-width="2" stroke-linecap="round" stroke-linejoin="round"/>
<path d="M11.25 61.875V70.3125C11.25 74.9738 15.0262 78.75 19.6875 78.75H28.125" stroke="#2D5DA6" stroke-width="2" stroke-linecap="round" stroke-linejoin="round"/>
<path d="M61.875 78.75H70.3125C74.9738 78.75 78.75 74.9738 78.75 70.3125V61.875" stroke="#2D5DA6" stroke-width="2" stroke-linecap="round" stroke-linejoin="round"/>
<path d="M78.75 28.125V19.6875C78.75 15.0262 74.9738 11.25 70.3125 11.25H61.875" stroke="#2D5DA6" stroke-width="2" stroke-linecap="round" stroke-linejoin="round"/>
</svg>
