<svg width="48" height="48" viewBox="0 0 48 48" fill="none" xmlns="http://www.w3.org/2000/svg">
<mask id="mask0_5193_2124" style="mask-type:luminance" maskUnits="userSpaceOnUse" x="0" y="0" width="48" height="48">
<path d="M48 0H0V48H48V0Z" fill="white"/>
</mask>
<g mask="url(#mask0_5193_2124)">
<path d="M26.1562 10.9697C26.1562 10.4227 25.9389 9.89811 25.5521 9.51131C25.1653 9.12452 24.6408 8.90723 24.0938 8.90723C23.5467 8.90723 23.0221 9.12452 22.6353 9.51131C22.2485 9.89811 22.0312 10.4227 22.0312 10.9697C22.0322 11.3789 22.1584 11.778 22.3931 12.1133C22.6278 12.4485 22.9596 12.7038 23.3438 12.8447V41.9072H24.8438V12.8447C25.2279 12.7038 25.5597 12.4485 25.7944 12.1133C26.029 11.778 26.1553 11.3789 26.1562 10.9697Z" stroke="#8A9099" stroke-width="0.8" stroke-linecap="round" stroke-linejoin="round"/>
<path d="M32.9062 9.84473H31.5938C30.3107 9.84473 29.1562 10.8117 29.1562 12.0947C29.1562 13.3778 28.1893 14.5322 26.9062 14.5322H24.8438V19.0322H34.9688C35.5655 19.0322 36.1378 18.7952 36.5597 18.3732C36.9817 17.9513 37.2188 17.379 37.2188 16.7822H36.4688C37.0655 16.7822 37.6378 16.5452 38.0597 16.1232C38.4817 15.7013 38.7188 15.129 38.7188 14.5322H37.9688C38.6152 14.5322 39.2352 14.2754 39.6923 13.8183C40.1494 13.3612 40.4062 12.7412 40.4062 12.0947H40.2188C40.8155 12.0947 41.3878 11.8577 41.8097 11.4357C42.2317 11.0138 42.4688 10.4415 42.4688 9.84473H37.2188" stroke="#8A9099" stroke-width="0.8" stroke-linecap="round" stroke-linejoin="round"/>
<path d="M29.7188 13.0322C29.5652 13.6763 29.1187 14.1632 28.5938 14.5322C28.1643 14.871 27.64 15.0676 27.0938 15.0947" stroke="#8A9099" stroke-width="0.8" stroke-linecap="round" stroke-linejoin="round"/>
<path d="M30.4688 10.9697C30.1859 11.2141 29.9887 11.5426 29.9062 11.9072C29.8794 12.0385 29.7188 12.3315 29.7188 12.4697" stroke="#8A9099" stroke-width="0.8" stroke-linecap="round" stroke-linejoin="round"/>
<path d="M36.4688 9.84375H33.4688" stroke="#8A9099" stroke-width="0.8" stroke-linecap="round" stroke-linejoin="round"/>
<path d="M35.5312 12.0938H34.4062" stroke="#8A9099" stroke-width="0.8" stroke-linecap="round" stroke-linejoin="round"/>
<path d="M40.2188 12.0938H36.4688" stroke="#8A9099" stroke-width="0.8" stroke-linecap="round" stroke-linejoin="round"/>
<path d="M38.3438 14.5312H32.5312" stroke="#8A9099" stroke-width="0.8" stroke-linecap="round" stroke-linejoin="round"/>
<path d="M36.6562 16.7812H30.8438" stroke="#8A9099" stroke-width="0.8" stroke-linecap="round" stroke-linejoin="round"/>
<path d="M15.0938 9.84473H16.2188C17.5018 9.84473 18.6562 10.8117 18.6562 12.0947C18.6562 13.3778 19.6232 14.5322 20.9062 14.5322H23.3438V19.0322H13.0312C12.4345 19.0322 11.8622 18.7952 11.4402 18.3732C11.0183 17.9513 10.7812 17.379 10.7812 16.7822H11.3438C10.747 16.7822 10.1747 16.5452 9.75275 16.1232C9.33079 15.7013 9.09375 15.129 9.09375 14.5322H9.84375C9.19728 14.5322 8.5773 14.2754 8.12018 13.8183C7.66306 13.3612 7.40625 12.7412 7.40625 12.0947H7.59375C6.99701 12.0947 6.4247 11.8577 6.00275 11.4357C5.58079 11.0138 5.34375 10.4415 5.34375 9.84473H10.7812" stroke="#8A9099" stroke-width="0.8" stroke-linecap="round" stroke-linejoin="round"/>
<path d="M18.0938 13.0322C18.2473 13.6763 18.6938 14.1632 19.2188 14.5322C19.6482 14.871 20.1725 15.0676 20.7188 15.0947" stroke="#8A9099" stroke-width="0.8" stroke-linecap="round" stroke-linejoin="round"/>
<path d="M17.5312 10.9697C17.8141 11.2141 18.0113 11.5426 18.0938 11.9072C18.1072 12.0945 18.1072 12.2825 18.0938 12.4697" stroke="#8A9099" stroke-width="0.8" stroke-linecap="round" stroke-linejoin="round"/>
<path d="M11.5312 9.84375H14.5312" stroke="#8A9099" stroke-width="0.8" stroke-linecap="round" stroke-linejoin="round"/>
<path d="M12.4688 12.0938H13.5938" stroke="#8A9099" stroke-width="0.8" stroke-linecap="round" stroke-linejoin="round"/>
<path d="M7.78125 12.0938H11.5312" stroke="#8A9099" stroke-width="0.8" stroke-linecap="round" stroke-linejoin="round"/>
<path d="M9.65625 14.5312H15.4688" stroke="#8A9099" stroke-width="0.8" stroke-linecap="round" stroke-linejoin="round"/>
<path d="M11.3438 16.7812H17.1562" stroke="#8A9099" stroke-width="0.8" stroke-linecap="round" stroke-linejoin="round"/>
<path d="M19.0314 31.5947C18.6755 31.2565 18.3922 30.8493 18.1987 30.398C18.0053 29.9467 17.9059 29.4607 17.9064 28.9697C17.9025 28.5254 17.9872 28.0848 18.1554 27.6736C18.3237 27.2624 18.5721 26.8888 18.8863 26.5747C19.2005 26.2605 19.5741 26.012 19.9853 25.8438C20.3965 25.6755 20.8371 25.5909 21.2814 25.5947H30.0939C31.1536 25.5947 32.1564 24.7793 32.1564 23.7197C32.1564 22.6602 31.1536 21.8447 30.0939 21.8447H27.4689C27.27 21.8447 27.0792 21.7657 26.9385 21.625C26.7979 21.4844 26.7189 21.2936 26.7189 21.0947C26.7189 20.8958 26.7979 20.705 26.9385 20.5644C27.0792 20.4237 27.27 20.3447 27.4689 20.3447H30.0939C31.9807 20.3447 33.6564 21.8327 33.6564 23.7197C33.6564 25.6067 31.9807 27.0947 30.0939 27.0947H21.2814C21.034 27.0906 20.7884 27.1363 20.559 27.2291C20.3297 27.3219 20.1214 27.4599 19.9464 27.6348C19.7715 27.8097 19.6336 28.0181 19.5408 28.2474C19.448 28.4767 19.4023 28.7224 19.4064 28.9697C19.4064 30.0293 20.2216 31.0322 21.2814 31.0322H27.0939" stroke="#8A9099" stroke-width="0.8" stroke-linecap="round" stroke-linejoin="round"/>
<path d="M23.1564 42.8447C22.542 42.5687 22.0204 42.121 21.6545 41.5555C21.2886 40.99 21.0939 40.3308 21.0939 39.6572C21.09 39.2129 21.1747 38.7723 21.3429 38.3611C21.5112 37.9499 21.7596 37.5763 22.0738 37.2622C22.388 36.948 22.7616 36.6995 23.1728 36.5313C23.584 36.363 24.0246 36.2784 24.4689 36.2822H27.0939C28.1536 36.2822 29.1564 35.4668 29.1564 34.4072C29.1564 33.3477 28.1536 32.5322 27.0939 32.5322H21.2814" stroke="#8A9099" stroke-width="0.8" stroke-linecap="round" stroke-linejoin="round"/>
<path d="M29.1565 31.5947C29.618 31.9046 29.9961 32.3232 30.2577 32.8137C30.5193 33.3041 30.6562 33.8514 30.6565 34.4072C30.6565 36.294 28.9808 37.7822 27.094 37.7822H24.469C24.2216 37.7781 23.976 37.8238 23.7467 37.9166C23.5173 38.0094 23.309 38.1474 23.1341 38.3223C22.9591 38.4972 22.8212 38.7056 22.7284 38.9349C22.6356 39.1642 22.5899 39.4099 22.594 39.6572C22.5945 40.0935 22.7433 40.5166 23.0158 40.8573C23.2883 41.1979 23.6685 41.4359 24.094 41.5322" stroke="#8A9099" stroke-width="0.8" stroke-linecap="round" stroke-linejoin="round"/>
<path d="M21.0938 25.5947H17.9062C17.409 25.5947 16.932 25.3972 16.5804 25.0455C16.2288 24.6939 16.0312 24.217 16.0312 23.7197C16.0312 23.2224 16.2288 22.7455 16.5804 22.3939C16.932 22.0423 17.409 21.8447 17.9062 21.8447H20.7188C20.9177 21.8447 21.1084 21.7657 21.2491 21.625C21.3897 21.4844 21.4688 21.2936 21.4688 21.0947C21.4688 20.8958 21.3897 20.705 21.2491 20.5644C21.1084 20.4237 20.9177 20.3447 20.7188 20.3447H17.9062C17.0111 20.3447 16.1527 20.7003 15.5197 21.3332C14.8868 21.9662 14.5312 22.8246 14.5312 23.7197C14.5312 24.6148 14.8868 25.4733 15.5197 26.1062C16.1527 26.7391 17.0111 27.0947 17.9062 27.0947H18.4688" stroke="#8A9099" stroke-width="0.8" stroke-linecap="round" stroke-linejoin="round"/>
<path d="M24.0938 36.2822C23.9556 36.2652 23.6741 36.2822 23.5312 36.2822H20.9062C20.409 36.2822 19.932 36.0847 19.5804 35.733C19.2288 35.3814 19.0312 34.9045 19.0312 34.4072C19.0312 33.9099 19.2288 33.433 19.5804 33.0814C19.932 32.7298 20.409 32.5322 20.9062 32.5322H26.7188C28.6056 32.5322 30.2812 30.8565 30.2812 28.9697C30.2821 28.303 30.0864 27.6509 29.7188 27.0947" stroke="#8A9099" stroke-width="0.8" stroke-linecap="round" stroke-linejoin="round"/>
<path d="M24.0938 37.7822C24.5192 37.8786 24.8994 38.1165 25.1719 38.4572C25.4444 38.7979 25.5932 39.221 25.5938 39.6572C25.5938 40.7168 24.591 41.7197 23.5312 41.7197H23.7188C23.5198 41.7197 23.3291 41.7987 23.1884 41.9394C23.0478 42.08 22.9688 42.2708 22.9688 42.4697C22.9688 42.6686 23.0478 42.8594 23.1884 43C23.3291 43.1407 23.5198 43.2197 23.7188 43.2197H23.5312C25.4181 43.2197 27.0938 41.544 27.0938 39.6572C27.0946 38.9905 26.8989 38.3384 26.5312 37.7822" stroke="#8A9099" stroke-width="0.8" stroke-linecap="round" stroke-linejoin="round"/>
<path d="M26.7188 27.0947C27.7785 27.0947 28.7812 27.91 28.7812 28.9697C28.7812 30.0295 27.7785 31.0322 26.7188 31.0322H20.9062C20.0111 31.0322 19.1527 31.3878 18.5197 32.0207C17.8868 32.6537 17.5312 33.5121 17.5312 34.4072C17.5312 35.3023 17.8868 36.1608 18.5197 36.7937C19.1527 37.4266 20.0111 37.7822 20.9062 37.7822H21.6562" stroke="#8A9099" stroke-width="0.8" stroke-linecap="round" stroke-linejoin="round"/>
</g>
</svg>
