<svg width="48" height="48" viewBox="0 0 48 48" fill="none" xmlns="http://www.w3.org/2000/svg">
<mask id="mask0_5193_3358" style="mask-type:luminance" maskUnits="userSpaceOnUse" x="0" y="0" width="48" height="48">
<path d="M48 0H0V48H48V0Z" fill="white"/>
</mask>
<g mask="url(#mask0_5193_3358)">
<path d="M36.7062 39.0776C36.7062 39.0776 36.6938 40.5172 36.7062 40.5172C39.142 40.6282 40.7123 40.4034 41.4362 39.9002C41.6801 39.7453 41.8825 39.5332 42.0259 39.2823C42.1692 39.0315 42.2492 38.7494 42.2589 38.4606V37.021C42.2649 36.9526 42.2649 36.8838 42.2589 36.8154C42.2589 35.5029 40.2134 34.3475 37.7344 34.3475C37.392 34.3282 37.0487 34.3282 36.7062 34.3475C37.0161 35.909 37.0161 37.5161 36.7062 39.0776Z" fill="#75ADDB"/>
<path d="M6.27233 17.2783V15.4274C6.2734 15.0443 6.12597 14.6757 5.86102 14.3991C4.94709 13.4695 3.59881 14.4162 3.59881 15.4274V17.2783H3.1875V36.1986L5.0384 40.106L6.68364 36.1986V17.4839L6.27233 17.2783Z" fill="#75ADDB"/>
<path d="M15.938 17.4843H21.285C21.7207 17.4821 22.1379 17.3081 22.446 17C22.7541 16.692 22.9281 16.2747 22.9303 15.8391V10.9033" fill="#FF5252"/>
<path d="M37.0179 14.0909V10.5947H23.0333L16.041 16.97" stroke="black" stroke-width="0.8" stroke-miterlimit="10" stroke-linecap="round"/>
<path d="M37.0181 18.2028V15.5293" stroke="black" stroke-width="0.8" stroke-miterlimit="10" stroke-linecap="round"/>
<path d="M37.0181 29.9256V20.2598" stroke="black" stroke-width="0.8" stroke-miterlimit="10" stroke-linecap="round"/>
<path d="M13.5732 41.2363H29.4087" stroke="black" stroke-width="0.8" stroke-miterlimit="10" stroke-linecap="round"/>
<path d="M16.041 17.1758V38.564C16.041 39.273 15.7593 39.953 15.2579 40.4544C14.7565 40.9558 14.0765 41.2375 13.3675 41.2375H13.1618C12.4527 41.2375 11.7727 40.9558 11.2713 40.4544C10.77 39.953 10.4883 39.273 10.4883 38.564V22.9341C10.4902 22.2802 10.7508 21.6536 11.2132 21.1912C11.6756 20.7288 12.3022 20.4682 12.9561 20.4663H14.807" stroke="black" stroke-width="0.8" stroke-miterlimit="10" stroke-linecap="round"/>
<path d="M16.041 17.1757H21.5937C22.4904 17.1757 23.0333 16.4269 23.0333 15.5305V10.5947" stroke="black" stroke-width="0.8" stroke-miterlimit="10" stroke-linecap="round"/>
<path d="M19.7432 21.2881H21.7997" stroke="black" stroke-width="0.8" stroke-miterlimit="10" stroke-linecap="round"/>
<path d="M23.2393 21.2881H31.0542" stroke="black" stroke-width="0.8" stroke-miterlimit="10" stroke-linecap="round"/>
<path d="M19.7432 24.9902H27.7637" stroke="black" stroke-width="0.8" stroke-miterlimit="10" stroke-linecap="round"/>
<path d="M19.7432 27.252H23.2393" stroke="black" stroke-width="0.8" stroke-miterlimit="10" stroke-linecap="round"/>
<path d="M19.7432 23.3443L30.8486 23.1387" stroke="black" stroke-width="0.8" stroke-miterlimit="10" stroke-linecap="round"/>
<path d="M32.646 29H32.5539C30.8756 29 29.5151 30.3605 29.5151 32.0388V38.7119C29.5151 40.3901 30.8756 41.7506 32.5539 41.7506H32.646C34.3243 41.7506 35.6848 40.3901 35.6848 38.7119V32.0388C35.6848 30.3605 34.3243 29 32.646 29Z" fill="#75ADDB"/>
<path d="M33.3198 41.443H33.1141C32.2987 41.4344 31.519 41.1066 30.9423 40.53C30.3657 39.9533 30.0379 39.1737 30.0293 38.3582V31.5716C30.0293 29.8677 31.4105 28.6924 33.1141 28.6924C34.8178 28.6924 36.199 29.8677 36.199 31.5716V38.3582C36.199 40.0355 34.9981 41.443 33.3198 41.443Z" stroke="black" stroke-width="0.8" stroke-miterlimit="10" stroke-linecap="round"/>
<path d="M36.1988 35.0674H30.4404" stroke="black" stroke-width="0.8" stroke-miterlimit="10" stroke-linecap="round"/>
<path d="M34.7595 31.1601C34.7595 31.1601 34.1183 30.2758 33.1143 30.1318" stroke="white" stroke-width="0.8" stroke-miterlimit="10" stroke-linecap="round"/>
<path d="M37.0215 33.6286C37.3732 33.5875 38.086 33.6286 38.4611 33.6286C41.2395 33.6286 43.1912 34.8311 43.1912 36.3022C43.1912 37.7732 41.034 38.9757 38.2554 38.9757C38.0806 38.9757 37.3972 38.9849 37.2271 38.9757" stroke="black" stroke-width="0.8" stroke-miterlimit="10" stroke-linecap="round"/>
<path d="M37.6387 35.6836L40.3122 36.7119" stroke="white" stroke-width="0.8" stroke-miterlimit="10" stroke-linecap="round"/>
<path d="M43.1914 36.3018V38.3583C43.1899 38.6273 43.1345 38.8933 43.0285 39.1405C42.9225 39.3878 42.7682 39.6113 42.5745 39.7979C41.8382 40.4402 39.4896 41.0318 36.4048 40.8262" stroke="black" stroke-width="0.8" stroke-miterlimit="10" stroke-linecap="round"/>
<path d="M7.19634 36.0957L5.75675 40.0032L3.7002 36.0957V31.5713H7.19634V36.0957Z" stroke="black" stroke-width="0.8" stroke-miterlimit="10" stroke-linecap="round"/>
<path d="M4.31738 16.7645V14.708C4.31738 14.0219 4.86545 13.6797 5.55132 13.6797C6.23738 13.6797 6.78525 14.0219 6.78525 14.708V16.7645" stroke="black" stroke-width="0.8" stroke-miterlimit="10" stroke-linecap="round"/>
<path d="M3.7002 21.0836V17.3818H7.19634V31.5721H3.7002V25.8137" stroke="black" stroke-width="0.8" stroke-miterlimit="10" stroke-linecap="round"/>
<path d="M3.7002 24.5782V22.1104" stroke="black" stroke-width="0.8" stroke-miterlimit="10" stroke-linecap="round"/>
<path d="M3.7002 18.2031H6.57937" stroke="black" stroke-width="0.5" stroke-miterlimit="10" stroke-linecap="round"/>
<path d="M6.37354 30.5427V27.8691" stroke="black" stroke-width="0.8" stroke-miterlimit="10" stroke-linecap="round"/>
<path d="M6.37354 26.8402V26.0176" stroke="black" stroke-width="0.8" stroke-miterlimit="10" stroke-linecap="round"/>
<path d="M7.60742 18.2041H8.43004V24.9907" stroke="black" stroke-width="0.8" stroke-miterlimit="10" stroke-linecap="round"/>
<path d="M3.90723 36.0947H7.19772" stroke="black" stroke-width="0.8" stroke-miterlimit="10" stroke-linecap="round"/>
<path d="M19.9517 37.7402V33.2158" stroke="black" stroke-width="0.8" stroke-miterlimit="10" stroke-linecap="round"/>
<path d="M22.2139 34.2446H19.9517V30.7485H22.2139C22.4313 30.7434 22.6476 30.7825 22.8495 30.8633C23.0514 30.9442 23.2348 31.0652 23.3886 31.219C23.5424 31.3728 23.6634 31.5562 23.7443 31.7581C23.8252 31.9601 23.8642 32.1763 23.8591 32.3937C23.8591 33.3315 23.1529 34.2446 22.2139 34.2446Z" stroke="black" stroke-width="0.8" stroke-miterlimit="10" stroke-linecap="round"/>
<path d="M23.862 37.7399L21.1885 35.0664" stroke="black" stroke-width="0.8" stroke-miterlimit="10" stroke-linecap="round"/>
<path d="M21.1885 37.7399L23.862 35.0664" stroke="black" stroke-width="0.8" stroke-miterlimit="10" stroke-linecap="round"/>
</g>
</svg>
