<svg width="48" height="48" viewBox="0 0 48 48" fill="none" xmlns="http://www.w3.org/2000/svg">
<path fill-rule="evenodd" clip-rule="evenodd" d="M21.5274 6.11144C21.4354 6.12776 20.946 6.18489 20.4399 6.23843C16.2665 6.67969 12.0244 8.11583 8.31946 10.3416C7.66438 10.7352 7.41075 10.9364 7.3307 11.126C7.17903 11.4848 7.18238 16.0678 7.33521 17.3202C8.19122 24.3361 11.1206 30.4141 16.0053 35.309C17.4056 36.7122 18.9943 38.0216 20.5654 39.0674C21.9871 40.0138 23.5351 40.8682 23.8278 40.8682C24.1176 40.8682 25.6647 40.0147 27.0484 39.0914C33.6344 34.6972 38.2098 27.9524 39.8371 20.2387C40.3136 17.9802 40.4272 16.7793 40.4301 13.9741C40.4321 12.0095 40.406 11.3175 40.3223 11.1195C40.2362 10.9156 39.9786 10.7195 39.1512 10.2285C36.2987 8.53559 33.1987 7.33979 29.8694 6.64824C27.8552 6.22981 26.9003 6.13838 24.2461 6.10952C22.8428 6.0943 21.6194 6.09513 21.5274 6.11144ZM21.151 7.33251C16.9187 7.74977 12.9523 9.02253 9.25845 11.1486L8.44971 11.6141L8.38898 12.4177C8.2609 14.111 8.44494 17.0931 8.80506 19.1605C10.054 26.3305 14.2249 33.025 20.1242 37.3281C21.0197 37.9813 23.0456 39.2788 23.17 39.2788C23.2097 39.2788 23.2423 37.7405 23.2423 35.8604C23.2423 31.7195 23.141 32.0548 24.4175 31.9712C29.8219 31.617 34.017 27.5526 34.5435 22.1605C34.8514 19.0067 33.5894 15.6816 31.2362 13.4462C30.3644 12.6181 29.5485 12.0623 28.3666 11.4916C27.2483 10.9515 27.1029 10.7867 27.3519 10.341C27.5898 9.91518 28.291 10.0723 29.6637 10.859C32.6535 12.5726 34.6758 15.3051 35.4673 18.7005C35.7037 19.7151 35.7687 21.9768 35.5922 23.0514C35.2066 25.3995 34.1068 27.6456 32.4877 29.3921C31.548 30.4057 30.0119 31.5058 28.7385 32.0771C27.5665 32.603 25.6435 33.0886 24.7333 33.0886H24.4134V36.1837C24.4134 37.886 24.4394 39.2788 24.4713 39.2788C24.5747 39.2788 25.687 38.5985 26.672 37.9328C30.0539 35.6472 33.1315 32.3993 35.1833 28.9509C37.2647 25.4525 38.5643 21.6859 39.0954 17.613C39.2549 16.3891 39.353 13.3682 39.2668 12.3343L39.2068 11.6146L38.3977 11.1489C35.2416 9.33229 31.8909 8.13038 28.469 7.5874C27.2305 7.3909 25.7032 7.24083 24.9362 7.24041L24.4134 7.24016V8.65295C24.4134 10.4871 24.4573 10.4224 23.1509 10.5119C21.1139 10.6512 19.5345 11.1858 17.8303 12.3126C14.6268 14.4306 12.7073 18.4641 13.1184 22.2138C13.2324 23.2537 13.3053 23.5923 13.635 24.6127C14.5224 27.3596 16.6232 29.7213 19.2931 30.9739C19.7399 31.1834 20.1712 31.412 20.2517 31.4818C20.4619 31.6642 20.4344 32.0215 20.1926 32.2486C19.9286 32.4967 19.7141 32.4562 18.6899 31.9646C15.0861 30.235 12.5932 26.8097 12.0261 22.8084C11.8871 21.8284 11.9746 19.624 12.1891 18.7005C12.706 16.4743 13.6856 14.6573 15.243 13.036C17.2485 10.9482 19.589 9.77063 22.4489 9.41067L23.2423 9.31079V8.27552V7.24016L22.5522 7.25128C22.1726 7.25739 21.5421 7.29395 21.151 7.33251ZM22.8112 12.592C21.4839 12.7593 19.9618 13.3255 18.834 14.0712C17.7755 14.7711 16.5792 16.0961 15.9386 17.2784C15.2204 18.6038 14.9149 19.92 14.9289 21.6283C14.9408 23.0847 15.1603 24.0621 15.7503 25.2855C16.2747 26.373 16.7189 26.9999 17.5462 27.8202C18.714 28.9781 19.9534 29.6971 21.5456 30.1399C22.293 30.3479 22.4908 30.3676 23.8278 30.3676C25.1702 30.3676 25.3612 30.3484 26.1283 30.1359C31.9148 28.5332 34.5528 21.961 31.4653 16.8393C30.7699 15.6855 29.5017 14.4477 28.3032 13.7529C26.7015 12.8243 24.5592 12.3714 22.8112 12.592ZM22.8816 13.7779C21.9915 13.8797 20.8338 14.2667 19.9853 14.7464C19.1755 15.2042 18.061 16.2121 17.5084 16.9864C17.0201 17.6708 16.5088 18.7578 16.2891 19.5788C16.0281 20.5543 16.024 22.3054 16.2805 23.3265C17.0344 26.3283 19.4844 28.614 22.5257 29.1527C23.163 29.2655 24.4927 29.2655 25.13 29.1527C28.1713 28.614 30.6213 26.3283 31.3752 23.3265C31.6316 22.3054 31.6276 20.5543 31.3666 19.5788C30.52 16.4151 27.8763 14.1321 24.6416 13.7714C23.7538 13.6724 23.8069 13.6722 22.8816 13.7779ZM27.5442 17.9279C27.4949 17.9617 26.294 19.2317 24.8755 20.7499C23.4571 22.2682 22.2715 23.5207 22.241 23.5333C22.2104 23.5458 21.5856 23.0078 20.8525 22.3376C19.6265 21.2168 19.497 21.1212 19.2353 21.1437C18.8692 21.1752 18.6061 21.5002 18.6867 21.8214C18.7231 21.9662 19.2736 22.5309 20.2605 23.4356C21.0954 24.2009 21.8628 24.8832 21.966 24.9518C22.369 25.2195 22.1021 25.4751 27.9845 19.1877C28.3468 18.8004 28.4287 18.6586 28.4287 18.4186C28.4287 18.2094 28.375 18.0868 28.2427 17.9942C28.0473 17.8573 27.6962 17.824 27.5442 17.9279Z" fill="black"/>
</svg>
