<svg width="48" height="48" viewBox="0 0 48 48" fill="none" xmlns="http://www.w3.org/2000/svg">
<path fill-rule="evenodd" clip-rule="evenodd" d="M21.6484 6.01312C21.5542 6.02981 21.0532 6.08831 20.5351 6.14311C16.2625 6.59485 11.9197 8.06509 8.12684 10.3437C7.45621 10.7467 7.19656 10.9526 7.1146 11.1467C6.95934 11.5141 6.96277 16.2058 7.11923 17.488C7.99556 24.6705 10.9945 30.8927 15.9952 35.9039C17.4287 37.3404 19.0551 38.6809 20.6636 39.7515C22.119 40.7204 23.7037 41.5951 24.0034 41.5951C24.3001 41.5951 25.8839 40.7213 27.3005 39.7761C34.0428 35.2776 38.7268 28.3726 40.3928 20.4758C40.8806 18.1637 40.9969 16.9343 40.9999 14.0625C41.0019 12.0512 40.9752 11.3428 40.8895 11.1401C40.8014 10.9313 40.5376 10.7306 39.6906 10.2279C36.7704 8.49482 33.5968 7.27062 30.1885 6.56265C28.1264 6.13429 27.1488 6.04069 24.4316 6.01115C22.995 5.99556 21.7426 5.99642 21.6484 6.01312ZM21.263 7.26317C16.9303 7.69033 12.8696 8.99331 9.08813 11.1699L8.26018 11.6465L8.19801 12.4691C8.0669 14.2026 8.2553 17.2555 8.62397 19.372C9.90255 26.7122 14.1725 33.5657 20.2119 37.971C21.1286 38.6396 23.2026 39.968 23.33 39.968C23.3707 39.968 23.404 38.3932 23.404 36.4684C23.404 32.2292 23.3003 32.5724 24.6071 32.4868C30.1398 32.1242 34.4345 27.9633 34.9735 22.4432C35.2887 19.2145 33.9968 15.8104 31.5877 13.522C30.6952 12.6742 29.8599 12.1052 28.65 11.521C27.5051 10.9681 27.3562 10.7994 27.6112 10.3431C27.8547 9.90716 28.5726 10.068 29.9778 10.8734C33.0386 12.6277 35.109 15.4251 35.9192 18.901C36.1613 19.9397 36.2278 22.2551 36.0471 23.3552C35.6523 25.7591 34.5264 28.0585 32.8689 29.8465C31.9069 30.8842 30.3343 32.0104 29.0306 32.5953C27.8308 33.1336 25.8622 33.6307 24.9304 33.6307H24.6029V36.7994C24.6029 38.5421 24.6295 39.968 24.6622 39.968C24.768 39.968 25.9067 39.2715 26.9151 38.59C30.3773 36.2501 33.528 32.9251 35.6284 29.3948C37.7593 25.8134 39.0897 21.9574 39.6335 17.7877C39.7968 16.5348 39.8972 13.4422 39.8089 12.3837L39.7475 11.6469L38.9192 11.1701C35.6881 9.31043 32.2579 8.07999 28.7548 7.52411C27.4868 7.32295 25.9233 7.16931 25.1381 7.16888L24.6029 7.16863V8.61497C24.6029 10.4927 24.6479 10.4265 23.3104 10.518C21.2251 10.6607 19.6081 11.2079 17.8634 12.3615C14.5839 14.5298 12.6189 18.659 13.0397 22.4978C13.1564 23.5624 13.231 23.909 13.5685 24.9537C14.4771 27.7657 16.6278 30.1836 19.361 31.4658C19.8184 31.6803 20.2599 31.9144 20.3424 31.9858C20.5576 32.1725 20.5294 32.5384 20.2819 32.7709C20.0116 33.0249 19.792 32.9833 18.7435 32.4801C15.0542 30.7094 12.5021 27.2028 11.9215 23.1065C11.7792 22.1032 11.8688 19.8465 12.0884 18.901C12.6175 16.622 13.6203 14.7619 15.2148 13.1021C17.2678 10.9647 19.664 9.75917 22.5918 9.39067L23.404 9.28842V8.22857V7.16863L22.6975 7.18002C22.3089 7.18627 21.6634 7.22369 21.263 7.26317ZM22.9627 12.6475C21.6039 12.8188 20.0456 13.3984 18.891 14.1618C17.8074 14.8784 16.5826 16.2349 15.9268 17.4452C15.1916 18.802 14.8789 20.1495 14.8932 21.8984C14.9053 23.3893 15.1301 24.39 15.7341 25.6424C16.2709 26.7557 16.7257 27.3975 17.5726 28.2373C18.7681 29.4227 20.037 30.1587 21.667 30.6121C22.4321 30.825 22.6347 30.8452 24.0034 30.8452C25.3777 30.8452 25.5732 30.8255 26.3585 30.608C32.2824 28.9672 34.983 22.239 31.8223 16.9957C31.1103 15.8145 29.812 14.5473 28.5851 13.836C26.9453 12.8853 24.7522 12.4217 22.9627 12.6475ZM23.0347 13.8616C22.1235 13.9658 20.9383 14.362 20.0697 14.8531C19.2406 15.3217 18.0996 16.3536 17.534 17.1463C17.034 17.8469 16.5106 18.9597 16.2857 19.8002C16.0185 20.7988 16.0144 22.5916 16.2769 23.6369C17.0487 26.71 19.5569 29.0499 22.6704 29.6014C23.3228 29.7169 24.6841 29.7169 25.3365 29.6014C28.45 29.0499 30.9582 26.71 31.7299 23.6369C31.9925 22.5916 31.9884 20.7988 31.7211 19.8002C30.8545 16.5614 28.148 14.2242 24.8365 13.8549C23.9276 13.7536 23.982 13.7533 23.0347 13.8616ZM27.8081 18.1102C27.7575 18.1448 26.5281 19.4448 25.076 20.9992C23.6239 22.5535 22.4101 23.8357 22.3789 23.8486C22.3475 23.8614 21.7079 23.3106 20.9575 22.6246C19.7024 21.4771 19.5698 21.3792 19.3018 21.4023C18.9271 21.4345 18.6577 21.7672 18.7402 22.0961C18.7775 22.2443 19.341 22.8224 20.3514 23.7486C21.2061 24.5321 21.9917 25.2305 22.0974 25.3007C22.5099 25.5749 22.2367 25.8365 28.2588 19.3998C28.6297 19.0034 28.7135 18.8582 28.7135 18.6125C28.7135 18.3983 28.6585 18.2728 28.5231 18.178C28.3231 18.0378 27.9636 18.0037 27.8081 18.1102Z" fill="#888E97"/>
</svg>
